<svg width="241" height="20" viewBox="0 0 241 20" fill="none" xmlns="http://www.w3.org/2000/svg">
<path d="M9.556 19L6.098 12.396H6.072V19H0.3V0.592H8.88C10.3707 0.592 11.6447 0.860666 12.702 1.398C13.7593 1.918 14.548 2.63733 15.068 3.556C15.6053 4.45733 15.874 5.48 15.874 6.624C15.874 7.85467 15.5273 8.94667 14.834 9.9C14.158 10.8533 13.1787 11.538 11.896 11.954L15.9 19H9.556ZM6.072 8.548H8.36C8.91467 8.548 9.33067 8.42667 9.608 8.184C9.88533 7.924 10.024 7.52533 10.024 6.988C10.024 6.50267 9.87667 6.12133 9.582 5.844C9.30467 5.56667 8.89733 5.428 8.36 5.428H6.072V8.548ZM23.49 5.194V7.456H29.21V11.798H23.49V14.398H29.99V19H17.718V0.592H29.99V5.194H23.49ZM54.2912 0.592V19H48.5452V9.822L45.7112 19H40.7712L37.9372 9.822V19H32.1652V0.592H39.2372L43.2932 11.642L47.2452 0.592H54.2912ZM62.6677 0.592V19H56.8957V0.592H62.6677ZM76.5586 6.884C76.3333 6.52 76.0126 6.24267 75.5966 6.052C75.1806 5.844 74.6779 5.74 74.0886 5.74C72.9793 5.74 72.1213 6.104 71.5146 6.832C70.9079 7.54267 70.6046 8.522 70.6046 9.77C70.6046 11.2087 70.9426 12.2833 71.6186 12.994C72.2946 13.7047 73.3346 14.06 74.7386 14.06C76.0733 14.06 77.1479 13.5227 77.9626 12.448H73.3606V8.366H82.7466V14.138C81.9493 15.5073 80.8486 16.686 79.4446 17.674C78.0406 18.6447 76.2639 19.13 74.1146 19.13C72.2079 19.13 70.5439 18.74 69.1226 17.96C67.7186 17.1627 66.6353 16.0533 65.8726 14.632C65.1273 13.2107 64.7546 11.59 64.7546 9.77C64.7546 7.95 65.1273 6.32933 65.8726 4.908C66.6353 3.48667 67.7186 2.386 69.1226 1.606C70.5266 0.808666 72.1733 0.409999 74.0626 0.409999C76.4719 0.409999 78.4306 0.990666 79.9386 2.152C81.4639 3.31333 82.3653 4.89067 82.6426 6.884H76.5586ZM90.5974 0.592V19H84.8254V0.592H90.5974ZM102.174 19.182C100.441 19.182 98.8463 18.7747 97.3903 17.96C95.9516 17.1453 94.8076 16.0187 93.9583 14.58C93.109 13.1413 92.6843 11.5207 92.6843 9.718C92.6843 7.91533 93.109 6.29467 93.9583 4.856C94.8076 3.41733 95.9516 2.29933 97.3903 1.502C98.8463 0.687333 100.441 0.279999 102.174 0.279999C103.908 0.279999 105.494 0.687333 106.932 1.502C108.371 2.29933 109.506 3.41733 110.338 4.856C111.188 6.29467 111.612 7.91533 111.612 9.718C111.612 11.5207 111.188 13.1413 110.338 14.58C109.506 16.0187 108.362 17.1453 106.906 17.96C105.468 18.7747 103.89 19.182 102.174 19.182ZM102.174 13.8C103.318 13.8 104.202 13.436 104.826 12.708C105.45 11.9627 105.762 10.966 105.762 9.718C105.762 8.45267 105.45 7.456 104.826 6.728C104.202 5.98267 103.318 5.61 102.174 5.61C101.013 5.61 100.12 5.98267 99.4963 6.728C98.8723 7.456 98.5603 8.45267 98.5603 9.718C98.5603 10.966 98.8723 11.9627 99.4963 12.708C100.12 13.436 101.013 13.8 102.174 13.8ZM125.315 19.182C123.113 19.182 121.293 18.6707 119.855 17.648C118.433 16.608 117.662 15.0913 117.541 13.098H123.676C123.763 14.1553 124.231 14.684 125.081 14.684C125.393 14.684 125.653 14.6147 125.861 14.476C126.086 14.32 126.199 14.086 126.199 13.774C126.199 13.3407 125.965 12.994 125.497 12.734C125.029 12.4567 124.301 12.1447 123.312 11.798C122.134 11.382 121.155 10.9747 120.375 10.576C119.612 10.1773 118.953 9.59667 118.399 8.834C117.844 8.07133 117.575 7.092 117.593 5.896C117.593 4.7 117.896 3.686 118.503 2.854C119.127 2.00467 119.967 1.36333 121.025 0.929999C122.099 0.496666 123.304 0.279999 124.639 0.279999C126.892 0.279999 128.677 0.799999 129.995 1.84C131.329 2.88 132.031 4.34467 132.1 6.234H125.887C125.869 5.714 125.739 5.34133 125.497 5.116C125.254 4.89067 124.959 4.778 124.613 4.778C124.37 4.778 124.171 4.86467 124.015 5.038C123.859 5.194 123.781 5.41933 123.781 5.714C123.781 6.13 124.006 6.47667 124.456 6.754C124.925 7.014 125.661 7.33467 126.667 7.716C127.828 8.14933 128.781 8.56533 129.527 8.964C130.289 9.36267 130.948 9.91733 131.502 10.628C132.057 11.3387 132.335 12.2313 132.335 13.306C132.335 14.4327 132.057 15.4467 131.502 16.348C130.948 17.232 130.142 17.9253 129.085 18.428C128.027 18.9307 126.771 19.182 125.315 19.182ZM148.819 0.592V5.168H143.931V19H138.159V5.168H133.323V0.592H148.819ZM159.354 19.182C157.621 19.182 156.026 18.7747 154.57 17.96C153.131 17.1453 151.987 16.0187 151.138 14.58C150.289 13.1413 149.864 11.5207 149.864 9.718C149.864 7.91533 150.289 6.29467 151.138 4.856C151.987 3.41733 153.131 2.29933 154.57 1.502C156.026 0.687333 157.621 0.279999 159.354 0.279999C161.087 0.279999 162.673 0.687333 164.112 1.502C165.551 2.29933 166.686 3.41733 167.518 4.856C168.367 6.29467 168.792 7.91533 168.792 9.718C168.792 11.5207 168.367 13.1413 167.518 14.58C166.686 16.0187 165.542 17.1453 164.086 17.96C162.647 18.7747 161.07 19.182 159.354 19.182ZM159.354 13.8C160.498 13.8 161.382 13.436 162.006 12.708C162.63 11.9627 162.942 10.966 162.942 9.718C162.942 8.45267 162.63 7.456 162.006 6.728C161.382 5.98267 160.498 5.61 159.354 5.61C158.193 5.61 157.3 5.98267 156.676 6.728C156.052 7.456 155.74 8.45267 155.74 9.718C155.74 10.966 156.052 11.9627 156.676 12.708C157.3 13.436 158.193 13.8 159.354 13.8ZM170.354 9.77C170.354 7.95 170.718 6.32933 171.446 4.908C172.192 3.48667 173.249 2.386 174.618 1.606C175.988 0.808666 177.6 0.409999 179.454 0.409999C181.049 0.409999 182.47 0.713333 183.718 1.32C184.984 1.90933 186.006 2.75 186.786 3.842C187.584 4.934 188.112 6.208 188.372 7.664H182.288C182.011 7.05733 181.612 6.58933 181.092 6.26C180.59 5.91333 180.009 5.74 179.35 5.74C178.38 5.74 177.608 6.104 177.036 6.832C176.482 7.56 176.204 8.53933 176.204 9.77C176.204 11.0007 176.482 11.98 177.036 12.708C177.608 13.436 178.38 13.8 179.35 13.8C180.009 13.8 180.59 13.6353 181.092 13.306C181.612 12.9593 182.011 12.4827 182.288 11.876H188.372C188.112 13.332 187.584 14.606 186.786 15.698C186.006 16.79 184.984 17.6393 183.718 18.246C182.47 18.8353 181.049 19.13 179.454 19.13C177.6 19.13 175.988 18.74 174.618 17.96C173.249 17.1627 172.192 16.0533 171.446 14.632C170.718 13.2107 170.354 11.59 170.354 9.77ZM201.578 19L196.222 11.018V19H190.45V0.592H196.222V8.34L201.5 0.592H208.026L201.682 9.406L208.442 19H201.578ZM215.849 5.194V7.456H221.569V11.798H215.849V14.398H222.349V19H210.077V0.592H222.349V5.194H215.849ZM233.781 19L230.323 12.396H230.297V19H224.525V0.592H233.105C234.595 0.592 235.869 0.860666 236.927 1.398C237.984 1.918 238.773 2.63733 239.293 3.556C239.83 4.45733 240.099 5.48 240.099 6.624C240.099 7.85467 239.752 8.94667 239.059 9.9C238.383 10.8533 237.403 11.538 236.121 11.954L240.125 19H233.781ZM230.297 8.548H232.585C233.139 8.548 233.555 8.42667 233.833 8.184C234.11 7.924 234.249 7.52533 234.249 6.988C234.249 6.50267 234.101 6.12133 233.807 5.844C233.529 5.56667 233.122 5.428 232.585 5.428H230.297V8.548Z" fill="white"/>
</svg>
